<svg id="レイヤー_1" data-name="レイヤー 1" xmlns="http://www.w3.org/2000/svg" viewBox="0 0 949 256"><defs><style>.cls-1{fill:#a0a0a0;}</style></defs><title>アートボード 1</title><path class="cls-1" d="M75.79,74.51v36.77H76q8.44-10.59,20-10.59,10.83,0,15.71,6t4.88,20.17v36.89h-8.93V128.42q0-12-3.15-16.13t-10.89-4.1q-6.18,0-12,5.89t-5.83,12.08v37.6H66.63V74.51Z"/><path class="cls-1" d="M130.89,101.88h8.92v37.25q0,10.71,3.22,14.69t10.23,4q6.42,0,12.14-5.53t5.71-12.08V101.88h9.16v61.88H171.7l-.11-9.28h-.24Q163.13,165,150.88,165q-10.35,0-15.17-5.71t-4.82-18.92Z"/><path class="cls-1" d="M198.12,101.88h9.17v13.8h.23a26.57,26.57,0,0,1,10.71-10.05,32.57,32.57,0,0,1,15.59-3.75h2.38v8h-2.38q-12.37,0-19.28,6.43t-6.9,18.21v29.27h-9.52Z"/><path class="cls-1" d="M248.7,101.88h8.92v37.25q0,10.71,3.21,14.69t10.24,4q6.42,0,12.14-5.53t5.71-12.08V101.88h9.16v61.88h-8.57l-.12-9.28h-.23Q280.94,165,268.69,165q-10.35,0-15.17-5.71t-4.82-18.92Z"/><path class="cls-1" d="M316.76,101.88l19.88,51.29h.24l18.56-51.29H365l-24,61.88q-6.18,15.94-13.21,21.66t-19.87,5.71v-7.26q9.65,0,14.64-4t9.64-16.07L307,101.88Z"/><path class="cls-1" d="M408,124.49v-3.21q0-7.26-3.33-10.18t-11.78-2.91a59.61,59.61,0,0,0-21.66,4.52V104.5a64.21,64.21,0,0,1,21.66-3.81q13.68,0,18.92,5t5.23,18v40.1h-8.57l-.11-10.59h-.24q-7.14,11.78-22,11.78-8.08,0-13.15-5.12t-5.05-13.56a18.86,18.86,0,0,1,7.85-15.83q7.86-6,25.11-6Zm0,6.55H400.9q-11.79,0-17.79,3.8a12,12,0,0,0-6,10.71,12.2,12.2,0,0,0,3,8.63,10.45,10.45,0,0,0,8,3.27,19.17,19.17,0,0,0,14.22-5.71Q408,146,408,136.63Z"/><path class="cls-1" d="M496.33,158.17q14.3-1.54,22.26-11.31t8-25.94q0-15.11-10-25T491,85.58a329.07,329.07,0,0,1-6.25,39q-3.75,15.95-8.27,24.1t-9,11.42a16.52,16.52,0,0,1-9.88,3.27q-8.57,0-15.77-10.35t-7.2-25.35q0-22.36,15.3-36.41t39.8-14q19.75,0,32.67,12.31t12.91,31.36q0,19.76-10,32T498.12,166.5ZM481.94,86.05Q464.32,88.2,453.79,99.5t-10.53,28.2q0,11.19,4.76,19t9.52,7.86A7.88,7.88,0,0,0,462,153q2.33-1.61,5.18-6.25a60.88,60.88,0,0,0,5.36-11.9,163.66,163.66,0,0,0,5-19.87Q480.16,102.36,481.94,86.05Z"/><path class="cls-1" d="M568.57,110.81h9.16v13.44h19V132H579.16A261.22,261.22,0,0,1,598,151.38l-5.24,6.07a213.4,213.4,0,0,0-15.23-16.89v33.08h-8.68V142.22a94.54,94.54,0,0,1-18.09,22.14l-5.24-6.79q14-12,21.06-25.58H548v-7.74h20.59Zm20.59-3a2.06,2.06,0,0,0,1.3-.3,4.35,4.35,0,0,0,.72-2,31,31,0,0,0,.47-4.82q.12-3.09.24-9.4l5.6.59a115.43,115.43,0,0,0,11.06-26.77l8.81,1.55A141.29,141.29,0,0,1,612,82.48h18A124,124,0,0,0,636,65.11l8.69,1.31a127.21,127.21,0,0,1-5.6,16.06h16.55v7.86H637.47v17.73h16.18v7.5H637.47v18.2h16.18v7.62H637.47V160H657.1v7.74H610.22v6.78h-9.05V102.71l-1.78,2.5q-.72,6.9-2.92,8.75c-1.47,1.23-4.22,1.84-8.27,1.84s-6.64-.57-7.79-1.72-1.73-3.91-1.73-8.27V85h-7.85q-1.43,14.76-6.07,22.79t-14.4,13.86l-4.4-8a30.81,30.81,0,0,0,11.12-10.77q3.63-6.24,4.82-17.91h-13V77.25H562.5q.12-3.21.12-10.71h8.92q0,7.38-.12,10.71h15.71v27.84a5.12,5.12,0,0,0,.3,2.32C587.63,107.69,588.2,107.83,589.16,107.83Zm39.5.24V90.34H610.22v17.73Zm0,25.7v-18.2H610.22v18.2Zm0,7.62H610.22V160h18.44Z"/><path class="cls-1" d="M663.05,96.17v-8h45.22v8Zm3.34-16.9V71.54h38.08v7.73Zm8.68,90.2v5.24h-8.68V139.13H704.7v30.34ZM667.22,113v-7.5h36.89V113Zm0,16.9v-7.62h36.89v7.62ZM675.07,162h21.3V146.74h-21.3Zm80.57-36.06V118.3H722.08v34.39c0,4.84.25,7.72.77,8.63s2.16,1.49,4.94,1.73q5.36.47,10.83.47,6.18,0,12-.47t7.2-3.63q1.24-3.15,2.32-21.24l9.4.83q-.48,8.2-.83,12.55a65.6,65.6,0,0,1-1.25,8.45,26.16,26.16,0,0,1-1.73,5.71,9.29,9.29,0,0,1-2.86,3.1,9.13,9.13,0,0,1-4.16,1.78q-2.15.3-6.07.66-8.68.59-15.23.59-5.71,0-13.8-.59a32,32,0,0,1-5.12-.84,13.37,13.37,0,0,1-3-1.25,4.24,4.24,0,0,1-1.84-3,35.1,35.1,0,0,1-.66-4.88q-.16-2.61-.17-8V110.21h42.84V81.06H711.37V73H764.8v53Z"/><path class="cls-1" d="M803,84.27h15.11v36.65h6.31V70.7h59.14v7.74h-50V87.6h46.77v7H833.58V104h46.77v7H833.58v9.88h53.91v7.74H848.57a77.53,77.53,0,0,0,15.12,20.11A110.42,110.42,0,0,0,877.37,131l7.26,4.16a103.53,103.53,0,0,1-14.64,19,89.37,89.37,0,0,0,18.45,11.19l-4.05,7.73a89.94,89.94,0,0,1-26.77-18.26,87.66,87.66,0,0,1-18.45-26.24h-5.59v33q11.19-2.15,23.32-5.36l1.31,7.5a299.61,299.61,0,0,1-45,8.93l-1-7.74q3.69-.36,12.14-1.66V128.66h-6.31v14.63q0,5.72-1.84,7.62t-7.68,1.9h-2l-2.14-8.45h2.26c1.74,0,2.77-.29,3.09-.89s.48-2.68.48-6.25V92.36H803v81.75h-8.69V92.36h-7.14V154h-8.09V84.27h15.23V67.73H803Z"/></svg>